{
    "asset": {
        "copyright": "2020 (c) Adobe Inc.",
        "generator": "Adobe Dimension - a39c749b7f1dd68e8fcb597e3575f0bb9d09bfc8",
        "version": "2.0"
    },
    "accessors": [
        {
            "bufferView": 0,
            "componentType": 5126,
            "count": 2399,
            "type": "VEC3",
            "max": [
                0.09999999403953552,
                0.19999998807907105,
                0.09999999403953552
            ],
            "min": [
                -0.09999999403953552,
                0.0,
                -0.09999999403953552
            ]
        },
        {
            "bufferView": 1,
            "componentType": 5126,
            "count": 2399,
            "type": "VEC3"
        },
        {
            "bufferView": 2,
            "componentType": 5126,
            "count": 2399,
            "type": "VEC2"
        },
        {
            "bufferView": 3,
            "componentType": 5125,
            "count": 13536,
            "type": "SCALAR",
            "max": [
                2398.0
            ],
            "min": [
                0.0
            ]
        }
    ],
    "bufferViews": [
        {
            "buffer": 0,
            "byteOffset": 0,
            "byteLength": 28788,
            "target": 34962
        },
        {
            "buffer": 0,
            "byteOffset": 28788,
            "byteLength": 28788,
            "target": 34962
        },
        {
            "buffer": 0,
            "byteOffset": 57576,
            "byteLength": 19192,
            "target": 34962
        },
        {
            "buffer": 0,
            "byteOffset": 76768,
            "byteLength": 54144,
            "target": 34963
        }
    ],
    "buffers": [
        {
            "byteLength": 130912,
            "uri": "CloudyEyes3_binary.bin"
        }
    ],
    "cameras": [
        {
            "perspective": {
                "znear": 0.000038961254176683727,
                "yfov": 0.6024156808853149,
                "zfar": 2.142868995666504,
                "aspectRatio": 1.3333333730697632
            },
            "type": "perspective",
            "name": "render_camera"
        }
    ],
    "images": [
        {
            "name": "blue-sky-with-white-clouds-nature-landscape-background",
            "uri": "CloudyEyes3_images/blue-sky-with-white-clouds-nature-landscape-background.jpg",
            "mimeType": "image/jpeg"
        }
    ],
    "materials": [
        {
            "pbrMetallicRoughness": {
                "baseColorTexture": {
                    "index": 0,
                    "extensions": {
                        "KHR_texture_transform": {
                            "offset": [
                                -1.2700001001358033,
                                -0.12999999523162843
                            ],
                            "rotation": 0,
                            "scale": [
                                1,
                                1
                            ]
                        }
                    }
                },
                "metallicFactor": 0.0,
                "roughnessFactor": 0.028999999165534974
            },
            "name": "Plastic 2",
            "doubleSided": true
        },
        {
            "pbrMetallicRoughness": {
                "baseColorFactor": [
                    0.8879239559173584,
                    0.8879239559173584,
                    0.8879239559173584,
                    1.0
                ],
                "metallicFactor": 0.0,
                "roughnessFactor": 0.028999999165534974
            },
            "name": "Plastic",
            "doubleSided": true
        },
        {
            "pbrMetallicRoughness": {
                "baseColorTexture": {
                    "index": 0,
                    "extensions": {
                        "KHR_texture_transform": {
                            "offset": [
                                -0.7500000596046448,
                                -0.12999999523162843
                            ],
                            "rotation": 0,
                            "scale": [
                                1,
                                1
                            ]
                        }
                    }
                },
                "metallicFactor": 0.0,
                "roughnessFactor": 0.028999999165534974
            },
            "name": "Plastic 2",
            "doubleSided": true
        },
        {
            "pbrMetallicRoughness": {
                "baseColorTexture": {
                    "index": 0,
                    "extensions": {
                        "KHR_texture_transform": {
                            "offset": [
                                -0.30000001192092898,
                                0.15000000596046449
                            ],
                            "rotation": 0,
                            "scale": [
                                1,
                                1
                            ]
                        }
                    }
                },
                "metallicFactor": 0.0,
                "roughnessFactor": 0.028999999165534974
            },
            "name": "Plastic 2",
            "doubleSided": true
        }
    ],
    "meshes": [
        {
            "name": "PROCEDURAL_MESHES_SPHERE#",
            "primitives": [
                {
                    "attributes": {
                        "TEXCOORD_0": 2,
                        "NORMAL": 1,
                        "POSITION": 0
                    },
                    "indices": 3,
                    "material": 0
                }
            ]
        },
        {
            "name": "PROCEDURAL_MESHES_SPHERE#",
            "primitives": [
                {
                    "attributes": {
                        "POSITION": 0,
                        "NORMAL": 1,
                        "TEXCOORD_0": 2
                    },
                    "indices": 3,
                    "material": 1
                }
            ]
        },
        {
            "name": "PROCEDURAL_MESHES_SPHERE#",
            "primitives": [
                {
                    "attributes": {
                        "TEXCOORD_0": 2,
                        "NORMAL": 1,
                        "POSITION": 0
                    },
                    "indices": 3,
                    "material": 1
                }
            ]
        },
        {
            "name": "PROCEDURAL_MESHES_SPHERE#",
            "primitives": [
                {
                    "attributes": {
                        "TEXCOORD_0": 2,
                        "NORMAL": 1,
                        "POSITION": 0
                    },
                    "indices": 3,
                    "material": 2
                }
            ]
        },
        {
            "name": "PROCEDURAL_MESHES_SPHERE#",
            "primitives": [
                {
                    "attributes": {
                        "POSITION": 0,
                        "NORMAL": 1,
                        "TEXCOORD_0": 2
                    },
                    "indices": 3,
                    "material": 1
                }
            ]
        },
        {
            "name": "PROCEDURAL_MESHES_SPHERE#",
            "primitives": [
                {
                    "attributes": {
                        "POSITION": 0,
                        "NORMAL": 1,
                        "TEXCOORD_0": 2
                    },
                    "indices": 3,
                    "material": 3
                }
            ]
        }
    ],
    "nodes": [
        {
            "translation": [
                0.5656276345252991,
                -0.3844006359577179,
                0.473591685295105
            ],
            "rotation": [
                -0.12059047073125839,
                0.379409521818161,
                0.04995020851492882,
                0.9159756302833557
            ],
            "scale": [
                1.0,
                1.0,
                0.9999999403953552
            ],
            "camera": 0,
            "name": "render_camera_n3d"
        },
        {
            "translation": [
                0.7119171023368836,
                0.11068259924650192,
                -0.29785817861557009
            ],
            "scale": [
                0.8571392297744751,
                0.8571392297744751,
                0.8571392297744751
            ],
            "mesh": 0,
            "name": "Sphere 10"
        },
        {
            "translation": [
                0.6437302231788635,
                0.07014579325914383,
                -0.29785817861557009
            ],
            "scale": [
                1.223423957824707,
                1.223423957824707,
                1.223423957824707
            ],
            "mesh": 1,
            "name": "Sphere 9"
        },
        {
            "translation": [
                0.04111608490347862,
                0.0,
                0.23962940275669099
            ],
            "scale": [
                1.8057119846343995,
                1.8057119846343995,
                1.8057119846343995
            ],
            "mesh": 2,
            "name": "Sphere"
        },
        {
            "translation": [
                -0.5164193511009216,
                0.43612533807754519,
                -0.13942378759384156
            ],
            "scale": [
                1.2650940418243409,
                1.2650940418243409,
                1.2650940418243409
            ],
            "mesh": 3,
            "name": "Sphere 7"
        },
        {
            "translation": [
                -0.6170598864555359,
                0.37629440426826479,
                -0.13942378759384156
            ],
            "scale": [
                1.8057119846343995,
                1.8057119846343995,
                1.8057119846343995
            ],
            "mesh": 4,
            "name": "Sphere 8"
        },
        {
            "translation": [
                0.1417565941810608,
                0.05983039736747742,
                0.23962940275669099
            ],
            "scale": [
                1.2650940418243409,
                1.2650940418243409,
                1.2650940418243409
            ],
            "mesh": 5,
            "name": "Sphere 2"
        }
    ],
    "samplers": [
        {}
    ],
    "scenes": [
        {
            "nodes": [
                0,
                1,
                2,
                3,
                4,
                5,
                6
            ],
            "name": "scene"
        }
    ],
    "textures": [
        {
            "name": "texture5313458",
            "sampler": 0,
            "source": 0
        }
    ],
    "scene": 0,
    "extensionsUsed": [
        "KHR_texture_transform"
    ],
    "extensionsRequired": [
        "KHR_texture_transform"
    ]
}